<mxfile host="app.diagrams.net" modified="2023-04-04T17:13:00.273Z" agent="Mozilla/5.0 (Windows NT 10.0; Win64; x64) AppleWebKit/537.36 (KHTML, like Gecko) Chrome/111.0.0.0 Safari/537.36" etag="BXknPXizwkb4J4vTnEaP" version="21.1.4" type="device" pages="2">
  <diagram id="R2lEEEUBdFMjLlhIrx00" name="Page-1">
    <mxGraphModel dx="1730" dy="484" grid="1" gridSize="10" guides="1" tooltips="1" connect="1" arrows="1" fold="1" page="1" pageScale="1" pageWidth="850" pageHeight="1100" math="0" shadow="0" extFonts="Permanent Marker^https://fonts.googleapis.com/css?family=Permanent+Marker">
      <root>
        <mxCell id="0" />
        <mxCell id="1" parent="0" />
        <mxCell id="sq5_dKMQRXLOkb7ZBP28-1" value="user" style="whiteSpace=wrap;html=1;align=center;" parent="1" vertex="1">
          <mxGeometry x="-113" y="287" width="100" height="40" as="geometry" />
        </mxCell>
        <mxCell id="sq5_dKMQRXLOkb7ZBP28-3" value="email" style="ellipse;whiteSpace=wrap;html=1;align=center;" parent="1" vertex="1">
          <mxGeometry x="-183" y="205" width="100" height="40" as="geometry" />
        </mxCell>
        <mxCell id="sq5_dKMQRXLOkb7ZBP28-4" value="password" style="ellipse;whiteSpace=wrap;html=1;align=center;" parent="1" vertex="1">
          <mxGeometry x="-63" y="226" width="100" height="40" as="geometry" />
        </mxCell>
        <mxCell id="sq5_dKMQRXLOkb7ZBP28-5" value="penyakit" style="whiteSpace=wrap;html=1;align=center;" parent="1" vertex="1">
          <mxGeometry x="164" y="140" width="100" height="40" as="geometry" />
        </mxCell>
        <mxCell id="sq5_dKMQRXLOkb7ZBP28-6" value="gejala" style="whiteSpace=wrap;html=1;align=center;" parent="1" vertex="1">
          <mxGeometry x="364" y="290" width="100" height="40" as="geometry" />
        </mxCell>
        <mxCell id="sq5_dKMQRXLOkb7ZBP28-7" value="rule" style="whiteSpace=wrap;html=1;align=center;" parent="1" vertex="1">
          <mxGeometry x="164" y="460" width="100" height="40" as="geometry" />
        </mxCell>
        <mxCell id="sq5_dKMQRXLOkb7ZBP28-8" value="id" style="ellipse;whiteSpace=wrap;html=1;align=center;" parent="1" vertex="1">
          <mxGeometry x="-243" y="266" width="100" height="40" as="geometry" />
        </mxCell>
        <mxCell id="sq5_dKMQRXLOkb7ZBP28-9" value="kd_penyakit" style="ellipse;whiteSpace=wrap;html=1;align=center;" parent="1" vertex="1">
          <mxGeometry x="20" y="110" width="100" height="40" as="geometry" />
        </mxCell>
        <mxCell id="sq5_dKMQRXLOkb7ZBP28-10" value="nama_penyakit" style="ellipse;whiteSpace=wrap;html=1;align=center;" parent="1" vertex="1">
          <mxGeometry x="239" y="60" width="100" height="40" as="geometry" />
        </mxCell>
        <mxCell id="sq5_dKMQRXLOkb7ZBP28-12" value="id_penyakit" style="ellipse;whiteSpace=wrap;html=1;align=center;" parent="1" vertex="1">
          <mxGeometry x="119" y="60" width="100" height="40" as="geometry" />
        </mxCell>
        <mxCell id="sq5_dKMQRXLOkb7ZBP28-13" value="id_rule" style="ellipse;whiteSpace=wrap;html=1;align=center;" parent="1" vertex="1">
          <mxGeometry x="-13" y="470" width="100" height="40" as="geometry" />
        </mxCell>
        <mxCell id="sq5_dKMQRXLOkb7ZBP28-14" value="nama_gejala" style="ellipse;whiteSpace=wrap;html=1;align=center;" parent="1" vertex="1">
          <mxGeometry x="274" y="360" width="100" height="40" as="geometry" />
        </mxCell>
        <mxCell id="sq5_dKMQRXLOkb7ZBP28-15" value="id_gejala" style="ellipse;whiteSpace=wrap;html=1;align=center;" parent="1" vertex="1">
          <mxGeometry x="290" y="220" width="100" height="40" as="geometry" />
        </mxCell>
        <mxCell id="sq5_dKMQRXLOkb7ZBP28-16" value="kd_penyakit" style="ellipse;whiteSpace=wrap;html=1;align=center;" parent="1" vertex="1">
          <mxGeometry x="480" y="350" width="100" height="40" as="geometry" />
        </mxCell>
        <mxCell id="sq5_dKMQRXLOkb7ZBP28-17" value="kd_penyakit" style="ellipse;whiteSpace=wrap;html=1;align=center;" parent="1" vertex="1">
          <mxGeometry x="190" y="550" width="100" height="40" as="geometry" />
        </mxCell>
        <mxCell id="sq5_dKMQRXLOkb7ZBP28-18" value="kd_gejala" style="ellipse;whiteSpace=wrap;html=1;align=center;" parent="1" vertex="1">
          <mxGeometry x="420" y="210" width="100" height="40" as="geometry" />
        </mxCell>
        <mxCell id="sq5_dKMQRXLOkb7ZBP28-19" value="kd_gejala" style="ellipse;whiteSpace=wrap;html=1;align=center;" parent="1" vertex="1">
          <mxGeometry x="75" y="570" width="100" height="40" as="geometry" />
        </mxCell>
        <mxCell id="sq5_dKMQRXLOkb7ZBP28-20" value="Diagnosa" style="whiteSpace=wrap;html=1;align=center;" parent="1" vertex="1">
          <mxGeometry x="606" y="129" width="100" height="40" as="geometry" />
        </mxCell>
        <mxCell id="sq5_dKMQRXLOkb7ZBP28-21" value="nama" style="ellipse;whiteSpace=wrap;html=1;align=center;" parent="1" vertex="1">
          <mxGeometry x="786" y="104" width="100" height="40" as="geometry" />
        </mxCell>
        <mxCell id="sq5_dKMQRXLOkb7ZBP28-22" value="umur" style="ellipse;whiteSpace=wrap;html=1;align=center;" parent="1" vertex="1">
          <mxGeometry x="776" y="154" width="100" height="40" as="geometry" />
        </mxCell>
        <mxCell id="sq5_dKMQRXLOkb7ZBP28-23" value="kd_gejala" style="ellipse;whiteSpace=wrap;html=1;align=center;" parent="1" vertex="1">
          <mxGeometry x="706" y="205" width="100" height="40" as="geometry" />
        </mxCell>
        <mxCell id="sq5_dKMQRXLOkb7ZBP28-24" value="kd_penyakit" style="ellipse;whiteSpace=wrap;html=1;align=center;" parent="1" vertex="1">
          <mxGeometry x="736" y="64" width="100" height="40" as="geometry" />
        </mxCell>
        <mxCell id="sq5_dKMQRXLOkb7ZBP28-29" value="" style="endArrow=none;html=1;rounded=0;exitX=0;exitY=0;exitDx=0;exitDy=0;" parent="1" source="sq5_dKMQRXLOkb7ZBP28-16" target="sq5_dKMQRXLOkb7ZBP28-6" edge="1">
          <mxGeometry width="50" height="50" relative="1" as="geometry">
            <mxPoint x="484" y="286" as="sourcePoint" />
            <mxPoint x="314" y="326" as="targetPoint" />
          </mxGeometry>
        </mxCell>
        <mxCell id="sq5_dKMQRXLOkb7ZBP28-30" value="" style="endArrow=none;html=1;rounded=0;exitX=0.25;exitY=1;exitDx=0;exitDy=0;entryX=0.5;entryY=0;entryDx=0;entryDy=0;" parent="1" source="sq5_dKMQRXLOkb7ZBP28-7" target="sq5_dKMQRXLOkb7ZBP28-19" edge="1">
          <mxGeometry width="50" height="50" relative="1" as="geometry">
            <mxPoint x="300" y="588" as="sourcePoint" />
            <mxPoint x="259" y="599" as="targetPoint" />
          </mxGeometry>
        </mxCell>
        <mxCell id="sq5_dKMQRXLOkb7ZBP28-31" value="" style="endArrow=none;html=1;rounded=0;exitX=0.5;exitY=1;exitDx=0;exitDy=0;entryX=0.5;entryY=0;entryDx=0;entryDy=0;" parent="1" source="sq5_dKMQRXLOkb7ZBP28-7" target="sq5_dKMQRXLOkb7ZBP28-17" edge="1">
          <mxGeometry width="50" height="50" relative="1" as="geometry">
            <mxPoint x="310" y="598" as="sourcePoint" />
            <mxPoint x="269" y="609" as="targetPoint" />
          </mxGeometry>
        </mxCell>
        <mxCell id="sq5_dKMQRXLOkb7ZBP28-32" value="" style="endArrow=none;html=1;rounded=0;" parent="1" source="sq5_dKMQRXLOkb7ZBP28-6" target="sq5_dKMQRXLOkb7ZBP28-15" edge="1">
          <mxGeometry width="50" height="50" relative="1" as="geometry">
            <mxPoint x="394" y="346" as="sourcePoint" />
            <mxPoint x="353" y="357" as="targetPoint" />
          </mxGeometry>
        </mxCell>
        <mxCell id="sq5_dKMQRXLOkb7ZBP28-33" value="" style="endArrow=none;html=1;rounded=0;exitX=0.25;exitY=1;exitDx=0;exitDy=0;entryX=0.5;entryY=0;entryDx=0;entryDy=0;" parent="1" source="sq5_dKMQRXLOkb7ZBP28-6" target="sq5_dKMQRXLOkb7ZBP28-14" edge="1">
          <mxGeometry width="50" height="50" relative="1" as="geometry">
            <mxPoint x="404" y="356" as="sourcePoint" />
            <mxPoint x="363" y="367" as="targetPoint" />
          </mxGeometry>
        </mxCell>
        <mxCell id="sq5_dKMQRXLOkb7ZBP28-34" value="" style="endArrow=none;html=1;rounded=0;entryX=0.5;entryY=1;entryDx=0;entryDy=0;" parent="1" source="sq5_dKMQRXLOkb7ZBP28-6" target="sq5_dKMQRXLOkb7ZBP28-18" edge="1">
          <mxGeometry width="50" height="50" relative="1" as="geometry">
            <mxPoint x="414" y="366" as="sourcePoint" />
            <mxPoint x="470" y="210" as="targetPoint" />
          </mxGeometry>
        </mxCell>
        <mxCell id="sq5_dKMQRXLOkb7ZBP28-35" value="" style="endArrow=none;html=1;rounded=0;exitX=0;exitY=0.5;exitDx=0;exitDy=0;entryX=1;entryY=0.5;entryDx=0;entryDy=0;" parent="1" source="sq5_dKMQRXLOkb7ZBP28-21" target="sq5_dKMQRXLOkb7ZBP28-20" edge="1">
          <mxGeometry width="50" height="50" relative="1" as="geometry">
            <mxPoint x="396" y="394" as="sourcePoint" />
            <mxPoint x="716" y="144" as="targetPoint" />
          </mxGeometry>
        </mxCell>
        <mxCell id="sq5_dKMQRXLOkb7ZBP28-36" value="" style="endArrow=none;html=1;rounded=0;entryX=1;entryY=0.5;entryDx=0;entryDy=0;exitX=0;exitY=0.5;exitDx=0;exitDy=0;" parent="1" source="sq5_dKMQRXLOkb7ZBP28-7" target="sq5_dKMQRXLOkb7ZBP28-13" edge="1">
          <mxGeometry width="50" height="50" relative="1" as="geometry">
            <mxPoint x="160" y="480" as="sourcePoint" />
            <mxPoint x="319" y="659" as="targetPoint" />
          </mxGeometry>
        </mxCell>
        <mxCell id="sq5_dKMQRXLOkb7ZBP28-37" value="" style="endArrow=none;html=1;rounded=0;exitX=0;exitY=0.5;exitDx=0;exitDy=0;entryX=1;entryY=0.5;entryDx=0;entryDy=0;" parent="1" source="sq5_dKMQRXLOkb7ZBP28-22" target="sq5_dKMQRXLOkb7ZBP28-20" edge="1">
          <mxGeometry width="50" height="50" relative="1" as="geometry">
            <mxPoint x="912" y="154" as="sourcePoint" />
            <mxPoint x="876" y="194" as="targetPoint" />
          </mxGeometry>
        </mxCell>
        <mxCell id="sq5_dKMQRXLOkb7ZBP28-38" value="" style="endArrow=none;html=1;rounded=0;exitX=0;exitY=0;exitDx=0;exitDy=0;entryX=1;entryY=0.5;entryDx=0;entryDy=0;" parent="1" target="sq5_dKMQRXLOkb7ZBP28-20" edge="1">
          <mxGeometry width="50" height="50" relative="1" as="geometry">
            <mxPoint x="740.8544793961719" y="204.77443213654578" as="sourcePoint" />
            <mxPoint x="716" y="154" as="targetPoint" />
          </mxGeometry>
        </mxCell>
        <mxCell id="sq5_dKMQRXLOkb7ZBP28-39" value="" style="endArrow=none;html=1;rounded=0;exitX=0.03;exitY=0.7;exitDx=0;exitDy=0;entryX=1;entryY=0.25;entryDx=0;entryDy=0;exitPerimeter=0;" parent="1" source="sq5_dKMQRXLOkb7ZBP28-24" target="sq5_dKMQRXLOkb7ZBP28-20" edge="1">
          <mxGeometry width="50" height="50" relative="1" as="geometry">
            <mxPoint x="932" y="174" as="sourcePoint" />
            <mxPoint x="896" y="214" as="targetPoint" />
          </mxGeometry>
        </mxCell>
        <mxCell id="sq5_dKMQRXLOkb7ZBP28-40" value="" style="endArrow=none;html=1;rounded=0;exitX=1;exitY=0.5;exitDx=0;exitDy=0;entryX=0.5;entryY=0;entryDx=0;entryDy=0;" parent="1" source="sq5_dKMQRXLOkb7ZBP28-9" target="sq5_dKMQRXLOkb7ZBP28-5" edge="1">
          <mxGeometry width="50" height="50" relative="1" as="geometry">
            <mxPoint x="535" y="290" as="sourcePoint" />
            <mxPoint x="499" y="330" as="targetPoint" />
          </mxGeometry>
        </mxCell>
        <mxCell id="sq5_dKMQRXLOkb7ZBP28-42" value="" style="endArrow=none;html=1;rounded=0;exitX=0.5;exitY=1;exitDx=0;exitDy=0;entryX=0.43;entryY=0.05;entryDx=0;entryDy=0;entryPerimeter=0;" parent="1" source="sq5_dKMQRXLOkb7ZBP28-12" target="sq5_dKMQRXLOkb7ZBP28-5" edge="1">
          <mxGeometry width="50" height="50" relative="1" as="geometry">
            <mxPoint x="319" y="150" as="sourcePoint" />
            <mxPoint x="269" y="160" as="targetPoint" />
          </mxGeometry>
        </mxCell>
        <mxCell id="sq5_dKMQRXLOkb7ZBP28-43" value="" style="endArrow=none;html=1;rounded=0;exitX=0;exitY=1;exitDx=0;exitDy=0;" parent="1" source="sq5_dKMQRXLOkb7ZBP28-10" target="sq5_dKMQRXLOkb7ZBP28-5" edge="1">
          <mxGeometry width="50" height="50" relative="1" as="geometry">
            <mxPoint x="329" y="160" as="sourcePoint" />
            <mxPoint x="279" y="170" as="targetPoint" />
          </mxGeometry>
        </mxCell>
        <mxCell id="sq5_dKMQRXLOkb7ZBP28-44" value="" style="endArrow=none;html=1;rounded=0;entryX=0.75;entryY=0;entryDx=0;entryDy=0;" parent="1" source="sq5_dKMQRXLOkb7ZBP28-4" target="sq5_dKMQRXLOkb7ZBP28-1" edge="1">
          <mxGeometry width="50" height="50" relative="1" as="geometry">
            <mxPoint x="327" y="326" as="sourcePoint" />
            <mxPoint x="277" y="336" as="targetPoint" />
          </mxGeometry>
        </mxCell>
        <mxCell id="sq5_dKMQRXLOkb7ZBP28-45" value="" style="endArrow=none;html=1;rounded=0;exitX=0.5;exitY=1;exitDx=0;exitDy=0;entryX=0.25;entryY=0;entryDx=0;entryDy=0;" parent="1" source="sq5_dKMQRXLOkb7ZBP28-3" target="sq5_dKMQRXLOkb7ZBP28-1" edge="1">
          <mxGeometry width="50" height="50" relative="1" as="geometry">
            <mxPoint x="337" y="336" as="sourcePoint" />
            <mxPoint x="287" y="346" as="targetPoint" />
          </mxGeometry>
        </mxCell>
        <mxCell id="sq5_dKMQRXLOkb7ZBP28-46" value="" style="endArrow=none;html=1;rounded=0;exitX=1;exitY=0.5;exitDx=0;exitDy=0;entryX=0;entryY=0.5;entryDx=0;entryDy=0;" parent="1" source="sq5_dKMQRXLOkb7ZBP28-8" target="sq5_dKMQRXLOkb7ZBP28-1" edge="1">
          <mxGeometry width="50" height="50" relative="1" as="geometry">
            <mxPoint x="-123" y="276" as="sourcePoint" />
            <mxPoint x="-78" y="296" as="targetPoint" />
          </mxGeometry>
        </mxCell>
        <mxCell id="lzb-67J7l8ASY_rJXxR8-1" style="edgeStyle=orthogonalEdgeStyle;rounded=0;orthogonalLoop=1;jettySize=auto;html=1;exitX=0.5;exitY=0;exitDx=0;exitDy=0;endArrow=none;endFill=0;" parent="1" source="sq5_dKMQRXLOkb7ZBP28-47" edge="1">
          <mxGeometry relative="1" as="geometry">
            <mxPoint x="413.82352941176487" y="330" as="targetPoint" />
          </mxGeometry>
        </mxCell>
        <mxCell id="sq5_dKMQRXLOkb7ZBP28-47" value="menghasilkan" style="shape=rhombus;perimeter=rhombusPerimeter;whiteSpace=wrap;html=1;align=center;" parent="1" vertex="1">
          <mxGeometry x="354" y="450" width="120" height="60" as="geometry" />
        </mxCell>
        <mxCell id="sq5_dKMQRXLOkb7ZBP28-48" value="" style="endArrow=none;html=1;rounded=0;entryX=1;entryY=0.5;entryDx=0;entryDy=0;exitX=0;exitY=0.5;exitDx=0;exitDy=0;" parent="1" source="sq5_dKMQRXLOkb7ZBP28-50" target="sq5_dKMQRXLOkb7ZBP28-7" edge="1">
          <mxGeometry width="50" height="50" relative="1" as="geometry">
            <mxPoint x="410" y="590" as="sourcePoint" />
            <mxPoint x="460" y="540" as="targetPoint" />
          </mxGeometry>
        </mxCell>
        <mxCell id="sq5_dKMQRXLOkb7ZBP28-49" value="" style="endArrow=none;html=1;rounded=0;entryX=1;entryY=0.5;entryDx=0;entryDy=0;exitX=0;exitY=0.5;exitDx=0;exitDy=0;" parent="1" source="sq5_dKMQRXLOkb7ZBP28-6" target="sq5_dKMQRXLOkb7ZBP28-58" edge="1">
          <mxGeometry width="50" height="50" relative="1" as="geometry">
            <mxPoint x="360" y="315" as="sourcePoint" />
            <mxPoint x="300" y="315" as="targetPoint" />
          </mxGeometry>
        </mxCell>
        <mxCell id="sq5_dKMQRXLOkb7ZBP28-51" value="menghasilkan" style="shape=rhombus;perimeter=rhombusPerimeter;whiteSpace=wrap;html=1;align=center;" parent="1" vertex="1">
          <mxGeometry x="596" y="280" width="120" height="60" as="geometry" />
        </mxCell>
        <mxCell id="sq5_dKMQRXLOkb7ZBP28-52" value="" style="endArrow=none;html=1;rounded=0;exitX=1;exitY=0.5;exitDx=0;exitDy=0;entryX=0;entryY=0.5;entryDx=0;entryDy=0;" parent="1" source="sq5_dKMQRXLOkb7ZBP28-6" target="sq5_dKMQRXLOkb7ZBP28-51" edge="1">
          <mxGeometry width="50" height="50" relative="1" as="geometry">
            <mxPoint x="490" y="185" as="sourcePoint" />
            <mxPoint x="547.9999999999995" y="316" as="targetPoint" />
          </mxGeometry>
        </mxCell>
        <mxCell id="sq5_dKMQRXLOkb7ZBP28-53" value="" style="endArrow=none;html=1;rounded=0;entryX=0.5;entryY=1;entryDx=0;entryDy=0;exitX=0.5;exitY=0;exitDx=0;exitDy=0;" parent="1" source="sq5_dKMQRXLOkb7ZBP28-51" target="sq5_dKMQRXLOkb7ZBP28-20" edge="1">
          <mxGeometry width="50" height="50" relative="1" as="geometry">
            <mxPoint x="653.9999999999995" y="215" as="sourcePoint" />
            <mxPoint x="506" y="144" as="targetPoint" />
          </mxGeometry>
        </mxCell>
        <mxCell id="sq5_dKMQRXLOkb7ZBP28-54" value="menghasilkan" style="shape=rhombus;perimeter=rhombusPerimeter;whiteSpace=wrap;html=1;align=center;" parent="1" vertex="1">
          <mxGeometry x="390" y="120" width="120" height="60" as="geometry" />
        </mxCell>
        <mxCell id="sq5_dKMQRXLOkb7ZBP28-55" value="" style="endArrow=none;html=1;rounded=0;entryX=0;entryY=0.5;entryDx=0;entryDy=0;exitX=1;exitY=0.5;exitDx=0;exitDy=0;" parent="1" source="sq5_dKMQRXLOkb7ZBP28-54" target="sq5_dKMQRXLOkb7ZBP28-20" edge="1">
          <mxGeometry width="50" height="50" relative="1" as="geometry">
            <mxPoint x="370" y="370" as="sourcePoint" />
            <mxPoint x="420" y="320" as="targetPoint" />
          </mxGeometry>
        </mxCell>
        <mxCell id="sq5_dKMQRXLOkb7ZBP28-57" value="" style="endArrow=none;html=1;rounded=0;entryX=1;entryY=0.25;entryDx=0;entryDy=0;exitX=0;exitY=0.5;exitDx=0;exitDy=0;" parent="1" source="sq5_dKMQRXLOkb7ZBP28-54" target="sq5_dKMQRXLOkb7ZBP28-5" edge="1">
          <mxGeometry width="50" height="50" relative="1" as="geometry">
            <mxPoint x="509" y="335" as="sourcePoint" />
            <mxPoint x="570" y="335" as="targetPoint" />
          </mxGeometry>
        </mxCell>
        <mxCell id="sq5_dKMQRXLOkb7ZBP28-58" value="mengelola" style="shape=rhombus;perimeter=rhombusPerimeter;whiteSpace=wrap;html=1;align=center;" parent="1" vertex="1">
          <mxGeometry x="154" y="280" width="120" height="60" as="geometry" />
        </mxCell>
        <mxCell id="sq5_dKMQRXLOkb7ZBP28-59" value="" style="endArrow=none;html=1;rounded=0;exitX=0;exitY=0.5;exitDx=0;exitDy=0;entryX=1;entryY=0.5;entryDx=0;entryDy=0;" parent="1" target="sq5_dKMQRXLOkb7ZBP28-1" edge="1">
          <mxGeometry width="50" height="50" relative="1" as="geometry">
            <mxPoint x="154" y="310" as="sourcePoint" />
            <mxPoint x="-13" y="290" as="targetPoint" />
          </mxGeometry>
        </mxCell>
        <mxCell id="sq5_dKMQRXLOkb7ZBP28-60" value="" style="endArrow=none;html=1;rounded=0;exitX=0.5;exitY=0;exitDx=0;exitDy=0;entryX=0.5;entryY=1;entryDx=0;entryDy=0;" parent="1" source="sq5_dKMQRXLOkb7ZBP28-7" target="sq5_dKMQRXLOkb7ZBP28-58" edge="1">
          <mxGeometry width="50" height="50" relative="1" as="geometry">
            <mxPoint x="250" y="510" as="sourcePoint" />
            <mxPoint x="300" y="460" as="targetPoint" />
          </mxGeometry>
        </mxCell>
        <mxCell id="sq5_dKMQRXLOkb7ZBP28-61" value="" style="endArrow=none;html=1;rounded=0;entryX=0.5;entryY=1;entryDx=0;entryDy=0;exitX=0.5;exitY=0;exitDx=0;exitDy=0;" parent="1" source="sq5_dKMQRXLOkb7ZBP28-58" target="sq5_dKMQRXLOkb7ZBP28-5" edge="1">
          <mxGeometry width="50" height="50" relative="1" as="geometry">
            <mxPoint x="390" y="330" as="sourcePoint" />
            <mxPoint x="440" y="280" as="targetPoint" />
          </mxGeometry>
        </mxCell>
        <mxCell id="sq5_dKMQRXLOkb7ZBP28-63" value="1" style="text;html=1;align=center;verticalAlign=middle;resizable=0;points=[];autosize=1;strokeColor=none;fillColor=none;" parent="1" vertex="1">
          <mxGeometry x="-13" y="276" width="30" height="30" as="geometry" />
        </mxCell>
        <mxCell id="sq5_dKMQRXLOkb7ZBP28-65" value="M" style="text;html=1;align=center;verticalAlign=middle;resizable=0;points=[];autosize=1;strokeColor=none;fillColor=none;" parent="1" vertex="1">
          <mxGeometry x="175" y="430" width="30" height="30" as="geometry" />
        </mxCell>
        <mxCell id="sq5_dKMQRXLOkb7ZBP28-66" value="M" style="text;html=1;align=center;verticalAlign=middle;resizable=0;points=[];autosize=1;strokeColor=none;fillColor=none;" parent="1" vertex="1">
          <mxGeometry x="390" y="327" width="30" height="30" as="geometry" />
        </mxCell>
        <mxCell id="sq5_dKMQRXLOkb7ZBP28-67" value="M" style="text;html=1;align=center;verticalAlign=middle;resizable=0;points=[];autosize=1;strokeColor=none;fillColor=none;" parent="1" vertex="1">
          <mxGeometry x="189" y="175" width="30" height="30" as="geometry" />
        </mxCell>
        <mxCell id="lzb-67J7l8ASY_rJXxR8-2" value="" style="endArrow=none;html=1;rounded=0;entryX=1;entryY=0.5;entryDx=0;entryDy=0;exitX=0;exitY=0.5;exitDx=0;exitDy=0;" parent="1" source="sq5_dKMQRXLOkb7ZBP28-47" target="sq5_dKMQRXLOkb7ZBP28-50" edge="1">
          <mxGeometry width="50" height="50" relative="1" as="geometry">
            <mxPoint x="354" y="480" as="sourcePoint" />
            <mxPoint x="264" y="480" as="targetPoint" />
          </mxGeometry>
        </mxCell>
        <mxCell id="sq5_dKMQRXLOkb7ZBP28-50" value="1" style="text;html=1;align=center;verticalAlign=middle;resizable=0;points=[];autosize=1;strokeColor=none;fillColor=none;" parent="1" vertex="1">
          <mxGeometry x="260" y="460" width="30" height="30" as="geometry" />
        </mxCell>
      </root>
    </mxGraphModel>
  </diagram>
  <diagram id="enmUI4t0pR07EJMnzTDJ" name="erd-bismilah fix">
    <mxGraphModel dx="2587" dy="968" grid="1" gridSize="10" guides="1" tooltips="1" connect="1" arrows="1" fold="1" page="1" pageScale="1" pageWidth="827" pageHeight="1169" math="0" shadow="0">
      <root>
        <mxCell id="0" />
        <mxCell id="1" parent="0" />
        <mxCell id="QsSUcf2f2qnZfckYnUJR-1" value="user" style="whiteSpace=wrap;html=1;align=center;" parent="1" vertex="1">
          <mxGeometry x="-113" y="287" width="100" height="40" as="geometry" />
        </mxCell>
        <mxCell id="QsSUcf2f2qnZfckYnUJR-2" value="email" style="ellipse;whiteSpace=wrap;html=1;align=center;" parent="1" vertex="1">
          <mxGeometry x="-183" y="205" width="100" height="40" as="geometry" />
        </mxCell>
        <mxCell id="QsSUcf2f2qnZfckYnUJR-3" value="password" style="ellipse;whiteSpace=wrap;html=1;align=center;" parent="1" vertex="1">
          <mxGeometry x="-63" y="226" width="100" height="40" as="geometry" />
        </mxCell>
        <mxCell id="QsSUcf2f2qnZfckYnUJR-126" style="edgeStyle=orthogonalEdgeStyle;rounded=0;orthogonalLoop=1;jettySize=auto;html=1;exitX=1;exitY=0.5;exitDx=0;exitDy=0;entryX=0;entryY=0.5;entryDx=0;entryDy=0;endArrow=none;endFill=0;" parent="1" source="QsSUcf2f2qnZfckYnUJR-4" target="QsSUcf2f2qnZfckYnUJR-47" edge="1">
          <mxGeometry relative="1" as="geometry" />
        </mxCell>
        <mxCell id="QsSUcf2f2qnZfckYnUJR-130" style="edgeStyle=orthogonalEdgeStyle;rounded=0;orthogonalLoop=1;jettySize=auto;html=1;exitX=0.5;exitY=0;exitDx=0;exitDy=0;entryX=0;entryY=0.5;entryDx=0;entryDy=0;endArrow=none;endFill=0;" parent="1" source="QsSUcf2f2qnZfckYnUJR-4" target="QsSUcf2f2qnZfckYnUJR-129" edge="1">
          <mxGeometry relative="1" as="geometry" />
        </mxCell>
        <mxCell id="QsSUcf2f2qnZfckYnUJR-4" value="penyakit" style="whiteSpace=wrap;html=1;align=center;" parent="1" vertex="1">
          <mxGeometry x="164" y="140" width="100" height="40" as="geometry" />
        </mxCell>
        <mxCell id="QsSUcf2f2qnZfckYnUJR-127" style="edgeStyle=orthogonalEdgeStyle;rounded=0;orthogonalLoop=1;jettySize=auto;html=1;exitX=0.5;exitY=0;exitDx=0;exitDy=0;endArrow=none;endFill=0;" parent="1" source="QsSUcf2f2qnZfckYnUJR-5" target="QsSUcf2f2qnZfckYnUJR-47" edge="1">
          <mxGeometry relative="1" as="geometry" />
        </mxCell>
        <mxCell id="QsSUcf2f2qnZfckYnUJR-5" value="rule" style="whiteSpace=wrap;html=1;align=center;" parent="1" vertex="1">
          <mxGeometry x="364" y="290" width="100" height="40" as="geometry" />
        </mxCell>
        <mxCell id="QsSUcf2f2qnZfckYnUJR-133" style="edgeStyle=orthogonalEdgeStyle;rounded=0;orthogonalLoop=1;jettySize=auto;html=1;exitX=0.5;exitY=1;exitDx=0;exitDy=0;entryX=0.5;entryY=1;entryDx=0;entryDy=0;endArrow=none;endFill=0;" parent="1" source="QsSUcf2f2qnZfckYnUJR-6" target="QsSUcf2f2qnZfckYnUJR-44" edge="1">
          <mxGeometry relative="1" as="geometry">
            <Array as="points">
              <mxPoint x="214" y="530" />
              <mxPoint x="656" y="530" />
            </Array>
          </mxGeometry>
        </mxCell>
        <mxCell id="QsSUcf2f2qnZfckYnUJR-6" value="Gejala" style="whiteSpace=wrap;html=1;align=center;" parent="1" vertex="1">
          <mxGeometry x="164" y="460" width="100" height="40" as="geometry" />
        </mxCell>
        <mxCell id="QsSUcf2f2qnZfckYnUJR-7" value="id" style="ellipse;whiteSpace=wrap;html=1;align=center;" parent="1" vertex="1">
          <mxGeometry x="-243" y="266" width="100" height="40" as="geometry" />
        </mxCell>
        <mxCell id="QsSUcf2f2qnZfckYnUJR-8" value="kd_penyakit" style="ellipse;whiteSpace=wrap;html=1;align=center;" parent="1" vertex="1">
          <mxGeometry x="37" y="169" width="100" height="40" as="geometry" />
        </mxCell>
        <mxCell id="QsSUcf2f2qnZfckYnUJR-9" value="nama_penyakit" style="ellipse;whiteSpace=wrap;html=1;align=center;" parent="1" vertex="1">
          <mxGeometry x="20" y="64" width="100" height="40" as="geometry" />
        </mxCell>
        <mxCell id="QsSUcf2f2qnZfckYnUJR-10" value="id_penyakit" style="ellipse;whiteSpace=wrap;html=1;align=center;" parent="1" vertex="1">
          <mxGeometry x="-30" y="120" width="100" height="40" as="geometry" />
        </mxCell>
        <mxCell id="QsSUcf2f2qnZfckYnUJR-12" value="nama_gejala" style="ellipse;whiteSpace=wrap;html=1;align=center;" parent="1" vertex="1">
          <mxGeometry x="89" y="560" width="100" height="40" as="geometry" />
        </mxCell>
        <mxCell id="QsSUcf2f2qnZfckYnUJR-13" value="kd_penyakit" style="ellipse;whiteSpace=wrap;html=1;align=center;" parent="1" vertex="1">
          <mxGeometry x="450" y="400" width="100" height="40" as="geometry" />
        </mxCell>
        <mxCell id="QsSUcf2f2qnZfckYnUJR-15" value="id_gejala" style="ellipse;whiteSpace=wrap;html=1;align=center;" parent="1" vertex="1">
          <mxGeometry x="20" y="520" width="100" height="40" as="geometry" />
        </mxCell>
        <mxCell id="QsSUcf2f2qnZfckYnUJR-16" value="kd_gejala" style="ellipse;whiteSpace=wrap;html=1;align=center;" parent="1" vertex="1">
          <mxGeometry x="490" y="240" width="100" height="40" as="geometry" />
        </mxCell>
        <mxCell id="QsSUcf2f2qnZfckYnUJR-17" value="kd_gejala" style="ellipse;whiteSpace=wrap;html=1;align=center;" parent="1" vertex="1">
          <mxGeometry y="450" width="100" height="40" as="geometry" />
        </mxCell>
        <mxCell id="QsSUcf2f2qnZfckYnUJR-131" style="edgeStyle=orthogonalEdgeStyle;rounded=0;orthogonalLoop=1;jettySize=auto;html=1;exitX=0.5;exitY=0;exitDx=0;exitDy=0;entryX=1;entryY=0.5;entryDx=0;entryDy=0;endArrow=none;endFill=0;" parent="1" source="QsSUcf2f2qnZfckYnUJR-18" target="QsSUcf2f2qnZfckYnUJR-129" edge="1">
          <mxGeometry relative="1" as="geometry" />
        </mxCell>
        <mxCell id="QsSUcf2f2qnZfckYnUJR-18" value="Diagnosa" style="whiteSpace=wrap;html=1;align=center;" parent="1" vertex="1">
          <mxGeometry x="606" y="129" width="100" height="40" as="geometry" />
        </mxCell>
        <mxCell id="QsSUcf2f2qnZfckYnUJR-19" value="nama" style="ellipse;whiteSpace=wrap;html=1;align=center;" parent="1" vertex="1">
          <mxGeometry x="786" y="104" width="100" height="40" as="geometry" />
        </mxCell>
        <mxCell id="QsSUcf2f2qnZfckYnUJR-20" value="umur" style="ellipse;whiteSpace=wrap;html=1;align=center;" parent="1" vertex="1">
          <mxGeometry x="776" y="154" width="100" height="40" as="geometry" />
        </mxCell>
        <mxCell id="QsSUcf2f2qnZfckYnUJR-21" value="kd_gejala" style="ellipse;whiteSpace=wrap;html=1;align=center;" parent="1" vertex="1">
          <mxGeometry x="706" y="205" width="100" height="40" as="geometry" />
        </mxCell>
        <mxCell id="QsSUcf2f2qnZfckYnUJR-22" value="kd_penyakit" style="ellipse;whiteSpace=wrap;html=1;align=center;" parent="1" vertex="1">
          <mxGeometry x="736" y="64" width="100" height="40" as="geometry" />
        </mxCell>
        <mxCell id="QsSUcf2f2qnZfckYnUJR-23" value="" style="endArrow=none;html=1;rounded=0;exitX=0;exitY=0;exitDx=0;exitDy=0;" parent="1" target="QsSUcf2f2qnZfckYnUJR-5" edge="1">
          <mxGeometry width="50" height="50" relative="1" as="geometry">
            <mxPoint x="494.644660940673" y="355.85786437626916" as="sourcePoint" />
            <mxPoint x="314" y="326" as="targetPoint" />
          </mxGeometry>
        </mxCell>
        <mxCell id="QsSUcf2f2qnZfckYnUJR-24" value="" style="endArrow=none;html=1;rounded=0;exitX=-0.003;exitY=0.329;exitDx=0;exitDy=0;entryX=1;entryY=0.5;entryDx=0;entryDy=0;exitPerimeter=0;" parent="1" source="QsSUcf2f2qnZfckYnUJR-6" target="QsSUcf2f2qnZfckYnUJR-17" edge="1">
          <mxGeometry width="50" height="50" relative="1" as="geometry">
            <mxPoint x="300" y="588" as="sourcePoint" />
            <mxPoint x="259" y="599" as="targetPoint" />
          </mxGeometry>
        </mxCell>
        <mxCell id="QsSUcf2f2qnZfckYnUJR-25" value="" style="endArrow=none;html=1;rounded=0;exitX=0;exitY=0.5;exitDx=0;exitDy=0;entryX=0.5;entryY=0;entryDx=0;entryDy=0;" parent="1" source="QsSUcf2f2qnZfckYnUJR-6" target="QsSUcf2f2qnZfckYnUJR-15" edge="1">
          <mxGeometry width="50" height="50" relative="1" as="geometry">
            <mxPoint x="310" y="598" as="sourcePoint" />
            <mxPoint x="269" y="609" as="targetPoint" />
          </mxGeometry>
        </mxCell>
        <mxCell id="QsSUcf2f2qnZfckYnUJR-26" value="" style="endArrow=none;html=1;rounded=0;" parent="1" source="QsSUcf2f2qnZfckYnUJR-5" target="QsSUcf2f2qnZfckYnUJR-13" edge="1">
          <mxGeometry width="50" height="50" relative="1" as="geometry">
            <mxPoint x="394" y="346" as="sourcePoint" />
            <mxPoint x="353" y="357" as="targetPoint" />
          </mxGeometry>
        </mxCell>
        <mxCell id="QsSUcf2f2qnZfckYnUJR-28" value="" style="endArrow=none;html=1;rounded=0;entryX=0.5;entryY=1;entryDx=0;entryDy=0;" parent="1" source="QsSUcf2f2qnZfckYnUJR-5" target="QsSUcf2f2qnZfckYnUJR-16" edge="1">
          <mxGeometry width="50" height="50" relative="1" as="geometry">
            <mxPoint x="414" y="366" as="sourcePoint" />
            <mxPoint x="470" y="210" as="targetPoint" />
          </mxGeometry>
        </mxCell>
        <mxCell id="QsSUcf2f2qnZfckYnUJR-29" value="" style="endArrow=none;html=1;rounded=0;exitX=0;exitY=0.5;exitDx=0;exitDy=0;entryX=1;entryY=0.5;entryDx=0;entryDy=0;" parent="1" source="QsSUcf2f2qnZfckYnUJR-19" target="QsSUcf2f2qnZfckYnUJR-18" edge="1">
          <mxGeometry width="50" height="50" relative="1" as="geometry">
            <mxPoint x="396" y="394" as="sourcePoint" />
            <mxPoint x="716" y="144" as="targetPoint" />
          </mxGeometry>
        </mxCell>
        <mxCell id="QsSUcf2f2qnZfckYnUJR-30" value="" style="endArrow=none;html=1;rounded=0;entryX=1;entryY=0.5;entryDx=0;entryDy=0;exitX=0.256;exitY=1.056;exitDx=0;exitDy=0;exitPerimeter=0;" parent="1" source="QsSUcf2f2qnZfckYnUJR-55" target="QsSUcf2f2qnZfckYnUJR-120" edge="1">
          <mxGeometry width="50" height="50" relative="1" as="geometry">
            <mxPoint x="160" y="480" as="sourcePoint" />
            <mxPoint x="87" y="490" as="targetPoint" />
          </mxGeometry>
        </mxCell>
        <mxCell id="QsSUcf2f2qnZfckYnUJR-31" value="" style="endArrow=none;html=1;rounded=0;exitX=0;exitY=0.5;exitDx=0;exitDy=0;entryX=1;entryY=0.5;entryDx=0;entryDy=0;" parent="1" source="QsSUcf2f2qnZfckYnUJR-20" target="QsSUcf2f2qnZfckYnUJR-18" edge="1">
          <mxGeometry width="50" height="50" relative="1" as="geometry">
            <mxPoint x="912" y="154" as="sourcePoint" />
            <mxPoint x="876" y="194" as="targetPoint" />
          </mxGeometry>
        </mxCell>
        <mxCell id="QsSUcf2f2qnZfckYnUJR-32" value="" style="endArrow=none;html=1;rounded=0;exitX=0;exitY=0;exitDx=0;exitDy=0;entryX=1;entryY=0.5;entryDx=0;entryDy=0;" parent="1" target="QsSUcf2f2qnZfckYnUJR-18" edge="1">
          <mxGeometry width="50" height="50" relative="1" as="geometry">
            <mxPoint x="740.8544793961719" y="204.77443213654578" as="sourcePoint" />
            <mxPoint x="716" y="154" as="targetPoint" />
          </mxGeometry>
        </mxCell>
        <mxCell id="QsSUcf2f2qnZfckYnUJR-33" value="" style="endArrow=none;html=1;rounded=0;exitX=0.03;exitY=0.7;exitDx=0;exitDy=0;entryX=1;entryY=0.25;entryDx=0;entryDy=0;exitPerimeter=0;" parent="1" source="QsSUcf2f2qnZfckYnUJR-22" target="QsSUcf2f2qnZfckYnUJR-18" edge="1">
          <mxGeometry width="50" height="50" relative="1" as="geometry">
            <mxPoint x="932" y="174" as="sourcePoint" />
            <mxPoint x="896" y="214" as="targetPoint" />
          </mxGeometry>
        </mxCell>
        <mxCell id="QsSUcf2f2qnZfckYnUJR-34" value="" style="endArrow=none;html=1;rounded=0;exitX=1;exitY=0.5;exitDx=0;exitDy=0;entryX=0;entryY=0.5;entryDx=0;entryDy=0;" parent="1" source="QsSUcf2f2qnZfckYnUJR-8" target="QsSUcf2f2qnZfckYnUJR-4" edge="1">
          <mxGeometry width="50" height="50" relative="1" as="geometry">
            <mxPoint x="535" y="290" as="sourcePoint" />
            <mxPoint x="499" y="330" as="targetPoint" />
          </mxGeometry>
        </mxCell>
        <mxCell id="QsSUcf2f2qnZfckYnUJR-35" value="" style="endArrow=none;html=1;rounded=0;exitX=1;exitY=0.5;exitDx=0;exitDy=0;entryX=0;entryY=0.5;entryDx=0;entryDy=0;" parent="1" source="QsSUcf2f2qnZfckYnUJR-10" target="QsSUcf2f2qnZfckYnUJR-4" edge="1">
          <mxGeometry width="50" height="50" relative="1" as="geometry">
            <mxPoint x="319" y="150" as="sourcePoint" />
            <mxPoint x="269" y="160" as="targetPoint" />
          </mxGeometry>
        </mxCell>
        <mxCell id="QsSUcf2f2qnZfckYnUJR-36" value="" style="endArrow=none;html=1;rounded=0;exitX=0.5;exitY=1;exitDx=0;exitDy=0;entryX=0;entryY=0.5;entryDx=0;entryDy=0;" parent="1" source="QsSUcf2f2qnZfckYnUJR-9" target="QsSUcf2f2qnZfckYnUJR-4" edge="1">
          <mxGeometry width="50" height="50" relative="1" as="geometry">
            <mxPoint x="329" y="160" as="sourcePoint" />
            <mxPoint x="279" y="170" as="targetPoint" />
          </mxGeometry>
        </mxCell>
        <mxCell id="QsSUcf2f2qnZfckYnUJR-37" value="" style="endArrow=none;html=1;rounded=0;entryX=0.75;entryY=0;entryDx=0;entryDy=0;" parent="1" source="QsSUcf2f2qnZfckYnUJR-3" target="QsSUcf2f2qnZfckYnUJR-1" edge="1">
          <mxGeometry width="50" height="50" relative="1" as="geometry">
            <mxPoint x="327" y="326" as="sourcePoint" />
            <mxPoint x="277" y="336" as="targetPoint" />
          </mxGeometry>
        </mxCell>
        <mxCell id="QsSUcf2f2qnZfckYnUJR-38" value="" style="endArrow=none;html=1;rounded=0;exitX=0.5;exitY=1;exitDx=0;exitDy=0;entryX=0.25;entryY=0;entryDx=0;entryDy=0;" parent="1" source="QsSUcf2f2qnZfckYnUJR-2" target="QsSUcf2f2qnZfckYnUJR-1" edge="1">
          <mxGeometry width="50" height="50" relative="1" as="geometry">
            <mxPoint x="337" y="336" as="sourcePoint" />
            <mxPoint x="287" y="346" as="targetPoint" />
          </mxGeometry>
        </mxCell>
        <mxCell id="QsSUcf2f2qnZfckYnUJR-39" value="" style="endArrow=none;html=1;rounded=0;exitX=1;exitY=0.5;exitDx=0;exitDy=0;entryX=0;entryY=0.5;entryDx=0;entryDy=0;" parent="1" source="QsSUcf2f2qnZfckYnUJR-7" target="QsSUcf2f2qnZfckYnUJR-1" edge="1">
          <mxGeometry width="50" height="50" relative="1" as="geometry">
            <mxPoint x="-123" y="276" as="sourcePoint" />
            <mxPoint x="-78" y="296" as="targetPoint" />
          </mxGeometry>
        </mxCell>
        <mxCell id="QsSUcf2f2qnZfckYnUJR-40" style="edgeStyle=orthogonalEdgeStyle;rounded=0;orthogonalLoop=1;jettySize=auto;html=1;exitX=0.5;exitY=0;exitDx=0;exitDy=0;endArrow=none;endFill=0;" parent="1" source="QsSUcf2f2qnZfckYnUJR-41" edge="1">
          <mxGeometry relative="1" as="geometry">
            <mxPoint x="413.82352941176487" y="330" as="targetPoint" />
          </mxGeometry>
        </mxCell>
        <mxCell id="QsSUcf2f2qnZfckYnUJR-41" value="menghasilkan" style="shape=rhombus;perimeter=rhombusPerimeter;whiteSpace=wrap;html=1;align=center;" parent="1" vertex="1">
          <mxGeometry x="354" y="450" width="120" height="60" as="geometry" />
        </mxCell>
        <mxCell id="QsSUcf2f2qnZfckYnUJR-42" value="" style="endArrow=none;html=1;rounded=0;entryX=0.5;entryY=0;entryDx=0;entryDy=0;exitX=0;exitY=0.75;exitDx=0;exitDy=0;" parent="1" source="QsSUcf2f2qnZfckYnUJR-6" target="QsSUcf2f2qnZfckYnUJR-12" edge="1">
          <mxGeometry width="50" height="50" relative="1" as="geometry">
            <mxPoint x="260" y="475" as="sourcePoint" />
            <mxPoint x="460" y="540" as="targetPoint" />
          </mxGeometry>
        </mxCell>
        <mxCell id="QsSUcf2f2qnZfckYnUJR-43" value="" style="endArrow=none;html=1;rounded=0;entryX=1;entryY=0.5;entryDx=0;entryDy=0;exitX=0;exitY=0.5;exitDx=0;exitDy=0;" parent="1" source="QsSUcf2f2qnZfckYnUJR-5" target="QsSUcf2f2qnZfckYnUJR-50" edge="1">
          <mxGeometry width="50" height="50" relative="1" as="geometry">
            <mxPoint x="360" y="315" as="sourcePoint" />
            <mxPoint x="300" y="315" as="targetPoint" />
          </mxGeometry>
        </mxCell>
        <mxCell id="QsSUcf2f2qnZfckYnUJR-44" value="memiliki" style="shape=rhombus;perimeter=rhombusPerimeter;whiteSpace=wrap;html=1;align=center;" parent="1" vertex="1">
          <mxGeometry x="596" y="280" width="120" height="60" as="geometry" />
        </mxCell>
        <mxCell id="QsSUcf2f2qnZfckYnUJR-46" value="" style="endArrow=none;html=1;rounded=0;entryX=0.5;entryY=1;entryDx=0;entryDy=0;exitX=0.5;exitY=0;exitDx=0;exitDy=0;" parent="1" source="QsSUcf2f2qnZfckYnUJR-44" target="QsSUcf2f2qnZfckYnUJR-18" edge="1">
          <mxGeometry width="50" height="50" relative="1" as="geometry">
            <mxPoint x="653.9999999999995" y="215" as="sourcePoint" />
            <mxPoint x="506" y="144" as="targetPoint" />
          </mxGeometry>
        </mxCell>
        <mxCell id="QsSUcf2f2qnZfckYnUJR-47" value="menghasilkan" style="shape=rhombus;perimeter=rhombusPerimeter;whiteSpace=wrap;html=1;align=center;" parent="1" vertex="1">
          <mxGeometry x="355" y="129" width="120" height="60" as="geometry" />
        </mxCell>
        <mxCell id="QsSUcf2f2qnZfckYnUJR-50" value="mengelola" style="shape=rhombus;perimeter=rhombusPerimeter;whiteSpace=wrap;html=1;align=center;" parent="1" vertex="1">
          <mxGeometry x="154" y="280" width="120" height="60" as="geometry" />
        </mxCell>
        <mxCell id="QsSUcf2f2qnZfckYnUJR-51" value="" style="endArrow=none;html=1;rounded=0;exitX=0;exitY=0.5;exitDx=0;exitDy=0;entryX=1;entryY=0.5;entryDx=0;entryDy=0;" parent="1" target="QsSUcf2f2qnZfckYnUJR-1" edge="1">
          <mxGeometry width="50" height="50" relative="1" as="geometry">
            <mxPoint x="154" y="310" as="sourcePoint" />
            <mxPoint x="-13" y="290" as="targetPoint" />
          </mxGeometry>
        </mxCell>
        <mxCell id="QsSUcf2f2qnZfckYnUJR-52" value="" style="endArrow=none;html=1;rounded=0;exitX=0.5;exitY=0;exitDx=0;exitDy=0;entryX=0.5;entryY=1;entryDx=0;entryDy=0;" parent="1" source="QsSUcf2f2qnZfckYnUJR-6" target="QsSUcf2f2qnZfckYnUJR-50" edge="1">
          <mxGeometry width="50" height="50" relative="1" as="geometry">
            <mxPoint x="250" y="510" as="sourcePoint" />
            <mxPoint x="300" y="460" as="targetPoint" />
          </mxGeometry>
        </mxCell>
        <mxCell id="QsSUcf2f2qnZfckYnUJR-53" value="" style="endArrow=none;html=1;rounded=0;entryX=0.5;entryY=1;entryDx=0;entryDy=0;exitX=0.5;exitY=0;exitDx=0;exitDy=0;" parent="1" source="QsSUcf2f2qnZfckYnUJR-50" target="QsSUcf2f2qnZfckYnUJR-4" edge="1">
          <mxGeometry width="50" height="50" relative="1" as="geometry">
            <mxPoint x="390" y="330" as="sourcePoint" />
            <mxPoint x="440" y="280" as="targetPoint" />
          </mxGeometry>
        </mxCell>
        <mxCell id="QsSUcf2f2qnZfckYnUJR-54" value="1" style="text;html=1;align=center;verticalAlign=middle;resizable=0;points=[];autosize=1;strokeColor=none;fillColor=none;" parent="1" vertex="1">
          <mxGeometry x="-10" y="280" width="30" height="30" as="geometry" />
        </mxCell>
        <mxCell id="QsSUcf2f2qnZfckYnUJR-55" value="M" style="text;html=1;align=center;verticalAlign=middle;resizable=0;points=[];autosize=1;strokeColor=none;fillColor=none;" parent="1" vertex="1">
          <mxGeometry x="175" y="430" width="30" height="30" as="geometry" />
        </mxCell>
        <mxCell id="QsSUcf2f2qnZfckYnUJR-56" value="M" style="text;html=1;align=center;verticalAlign=middle;resizable=0;points=[];autosize=1;strokeColor=none;fillColor=none;" parent="1" vertex="1">
          <mxGeometry x="334" y="276" width="30" height="30" as="geometry" />
        </mxCell>
        <mxCell id="QsSUcf2f2qnZfckYnUJR-57" value="M" style="text;html=1;align=center;verticalAlign=middle;resizable=0;points=[];autosize=1;strokeColor=none;fillColor=none;" parent="1" vertex="1">
          <mxGeometry x="189" y="175" width="30" height="30" as="geometry" />
        </mxCell>
        <mxCell id="QsSUcf2f2qnZfckYnUJR-58" value="" style="endArrow=none;html=1;rounded=0;exitX=0;exitY=0.5;exitDx=0;exitDy=0;entryX=1;entryY=0.5;entryDx=0;entryDy=0;" parent="1" source="QsSUcf2f2qnZfckYnUJR-41" target="QsSUcf2f2qnZfckYnUJR-6" edge="1">
          <mxGeometry width="50" height="50" relative="1" as="geometry">
            <mxPoint x="354" y="480" as="sourcePoint" />
            <mxPoint x="270" y="475" as="targetPoint" />
          </mxGeometry>
        </mxCell>
        <mxCell id="QsSUcf2f2qnZfckYnUJR-119" value="id_rule" style="ellipse;whiteSpace=wrap;html=1;align=center;" parent="1" vertex="1">
          <mxGeometry x="490" y="340" width="100" height="40" as="geometry" />
        </mxCell>
        <mxCell id="QsSUcf2f2qnZfckYnUJR-120" value="kd_penyakit" style="ellipse;whiteSpace=wrap;html=1;align=center;" parent="1" vertex="1">
          <mxGeometry x="30" y="380" width="100" height="40" as="geometry" />
        </mxCell>
        <mxCell id="QsSUcf2f2qnZfckYnUJR-123" value="1" style="text;html=1;align=center;verticalAlign=middle;resizable=0;points=[];autosize=1;strokeColor=none;fillColor=none;" parent="1" vertex="1">
          <mxGeometry x="390" y="330" width="30" height="30" as="geometry" />
        </mxCell>
        <mxCell id="QsSUcf2f2qnZfckYnUJR-124" value="M" style="text;html=1;align=center;verticalAlign=middle;resizable=0;points=[];autosize=1;strokeColor=none;fillColor=none;" parent="1" vertex="1">
          <mxGeometry x="260" y="450" width="30" height="30" as="geometry" />
        </mxCell>
        <mxCell id="QsSUcf2f2qnZfckYnUJR-129" value="menghasilkan" style="shape=rhombus;perimeter=rhombusPerimeter;whiteSpace=wrap;html=1;align=center;" parent="1" vertex="1">
          <mxGeometry x="355" y="30" width="120" height="60" as="geometry" />
        </mxCell>
        <mxCell id="QsSUcf2f2qnZfckYnUJR-134" value="1" style="text;html=1;align=center;verticalAlign=middle;resizable=0;points=[];autosize=1;strokeColor=none;fillColor=none;" parent="1" vertex="1">
          <mxGeometry x="210" y="109" width="30" height="30" as="geometry" />
        </mxCell>
        <mxCell id="QsSUcf2f2qnZfckYnUJR-135" value="M" style="text;html=1;align=center;verticalAlign=middle;resizable=0;points=[];autosize=1;strokeColor=none;fillColor=none;" parent="1" vertex="1">
          <mxGeometry x="260" y="134" width="30" height="30" as="geometry" />
        </mxCell>
        <mxCell id="QsSUcf2f2qnZfckYnUJR-136" value="1" style="text;html=1;align=center;verticalAlign=middle;resizable=0;points=[];autosize=1;strokeColor=none;fillColor=none;" parent="1" vertex="1">
          <mxGeometry x="414" y="266" width="30" height="30" as="geometry" />
        </mxCell>
        <mxCell id="QsSUcf2f2qnZfckYnUJR-137" value="1" style="text;html=1;align=center;verticalAlign=middle;resizable=0;points=[];autosize=1;strokeColor=none;fillColor=none;" parent="1" vertex="1">
          <mxGeometry x="630" y="99" width="30" height="30" as="geometry" />
        </mxCell>
        <mxCell id="QsSUcf2f2qnZfckYnUJR-138" value="1" style="text;html=1;align=center;verticalAlign=middle;resizable=0;points=[];autosize=1;strokeColor=none;fillColor=none;" parent="1" vertex="1">
          <mxGeometry x="650" y="169" width="30" height="30" as="geometry" />
        </mxCell>
        <mxCell id="QsSUcf2f2qnZfckYnUJR-139" value="M" style="text;html=1;align=center;verticalAlign=middle;resizable=0;points=[];autosize=1;strokeColor=none;fillColor=none;" parent="1" vertex="1">
          <mxGeometry x="210" y="500" width="30" height="30" as="geometry" />
        </mxCell>
      </root>
    </mxGraphModel>
  </diagram>
</mxfile>
